<?xml version="1.0" encoding="UTF-8"?>
<svg xmlns="http://www.w3.org/2000/svg" xmlns:xlink="http://www.w3.org/1999/xlink" width="55px" height="55px" viewBox="0 0 30 30" version="1.1">
<g id="surface2455636">
<path style=" stroke:none;fill-rule:nonzero;fill:rgb(23.529412%,20.392157%,85.882353%);fill-opacity:1;" d="M 8.230469 26.101562 C 5.839844 26.101562 3.898438 24.160156 3.898438 21.769531 L 3.898438 8.230469 C 3.898438 5.839844 5.839844 3.898438 8.230469 3.898438 L 21.769531 3.898438 C 24.160156 3.898438 26.101562 5.839844 26.101562 8.230469 L 26.101562 21.769531 C 26.101562 24.160156 24.160156 26.101562 21.769531 26.101562 Z M 20.570312 24.898438 C 22.960938 24.898438 24.898438 22.960938 24.898438 20.570312 L 24.898438 9.429688 C 24.898438 7.039062 22.960938 5.101562 20.570312 5.101562 L 9.429688 5.101562 C 7.039062 5.101562 5.101562 7.039062 5.101562 9.429688 L 5.101562 20.570312 C 5.101562 22.960938 7.039062 24.898438 9.429688 24.898438 Z M 20.570312 24.898438 "/>
<path style=" stroke:none;fill-rule:nonzero;fill:rgb(0%,56.078431%,92.54902%);fill-opacity:1;" d="M 7.683594 10.125 C 7.464844 10.121094 7.261719 10.234375 7.148438 10.425781 C 7.039062 10.617188 7.039062 10.851562 7.148438 11.039062 C 7.261719 11.230469 7.464844 11.34375 7.683594 11.34375 L 22.316406 11.34375 C 22.535156 11.34375 22.738281 11.230469 22.851562 11.039062 C 22.960938 10.851562 22.960938 10.617188 22.851562 10.425781 C 22.738281 10.234375 22.535156 10.121094 22.316406 10.125 Z M 7.683594 14.390625 C 7.464844 14.386719 7.261719 14.503906 7.148438 14.691406 C 7.039062 14.882812 7.039062 15.117188 7.148438 15.308594 C 7.261719 15.496094 7.464844 15.613281 7.683594 15.609375 L 22.316406 15.609375 C 22.535156 15.613281 22.738281 15.496094 22.851562 15.308594 C 22.960938 15.117188 22.960938 14.882812 22.851562 14.691406 C 22.738281 14.503906 22.535156 14.386719 22.316406 14.390625 Z M 7.683594 18.65625 C 7.464844 18.65625 7.261719 18.769531 7.148438 18.960938 C 7.039062 19.148438 7.039062 19.382812 7.148438 19.574219 C 7.261719 19.765625 7.464844 19.878906 7.683594 19.875 L 22.316406 19.875 C 22.535156 19.878906 22.738281 19.765625 22.851562 19.574219 C 22.960938 19.382812 22.960938 19.148438 22.851562 18.960938 C 22.738281 18.769531 22.535156 18.65625 22.316406 18.65625 Z M 7.683594 18.65625 "/>
</g>
</svg>
