<?xml version="1.0" encoding="UTF-8"?>
<svg xmlns="http://www.w3.org/2000/svg" xmlns:xlink="http://www.w3.org/1999/xlink" width="48px" height="48px" viewBox="0 0 40 40" version="1.1">
<g id="surface1161107">
<path style=" stroke:none;fill-rule:nonzero;fill:rgb(20.392157%,59.607843%,85.882353%);fill-opacity:1;" d="M 9.617188 37.601562 C 5.628906 37.601562 2.398438 34.371094 2.398438 30.382812 L 2.398438 9.617188 C 2.398438 5.628906 5.628906 2.398438 9.617188 2.398438 L 30.382812 2.398438 C 34.371094 2.398438 37.601562 5.628906 37.601562 9.617188 L 37.601562 30.382812 C 37.601562 34.371094 34.371094 37.601562 30.382812 37.601562 Z M 28.785156 36 C 32.769531 36 36 32.769531 36 28.785156 L 36 11.214844 C 36 7.230469 32.769531 4 28.785156 4 L 11.214844 4 C 7.230469 4 4 7.230469 4 11.214844 L 4 28.785156 C 4 32.769531 7.230469 36 11.214844 36 Z M 28.785156 36 "/>
<path style=" stroke:none;fill-rule:nonzero;fill:rgb(76.078431%,90.980392%,100%);fill-opacity:1;" d="M 7.945312 19.023438 L 32.054688 19.023438 L 32.054688 20.976562 L 7.945312 20.976562 Z M 7.945312 19.023438 "/>
<path style=" stroke:none;fill-rule:nonzero;fill:rgb(45.490196%,58.823529%,76.862745%);fill-opacity:1;" d="M 31.730469 19.347656 L 31.730469 20.652344 L 8.269531 20.652344 L 8.269531 19.347656 L 31.730469 19.347656 M 32.382812 18.695312 L 7.617188 18.695312 L 7.617188 21.304688 L 32.382812 21.304688 Z M 32.382812 18.695312 "/>
<path style=" stroke:none;fill-rule:nonzero;fill:rgb(76.078431%,90.980392%,100%);fill-opacity:1;" d="M 7.945312 12.503906 L 32.054688 12.503906 L 32.054688 14.460938 L 7.945312 14.460938 Z M 7.945312 12.503906 "/>
<path style=" stroke:none;fill-rule:nonzero;fill:rgb(45.490196%,58.823529%,76.862745%);fill-opacity:1;" d="M 31.730469 12.832031 L 31.730469 14.136719 L 8.269531 14.136719 L 8.269531 12.832031 L 31.730469 12.832031 M 32.382812 12.179688 L 7.617188 12.179688 L 7.617188 14.785156 L 32.382812 14.785156 Z M 32.382812 12.179688 "/>
<path style=" stroke:none;fill-rule:nonzero;fill:rgb(76.078431%,90.980392%,100%);fill-opacity:1;" d="M 7.945312 25.539062 L 32.054688 25.539062 L 32.054688 27.496094 L 7.945312 27.496094 Z M 7.945312 25.539062 "/>
<path style=" stroke:none;fill-rule:nonzero;fill:rgb(45.490196%,58.823529%,76.862745%);fill-opacity:1;" d="M 31.730469 25.863281 L 31.730469 27.167969 L 8.269531 27.167969 L 8.269531 25.863281 L 31.730469 25.863281 M 32.382812 25.214844 L 7.617188 25.214844 L 7.617188 27.820312 L 32.382812 27.820312 Z M 32.382812 25.214844 "/>
</g>
</svg>
